#tb 0: 1/25
#media_type 0: video
#codec_id 0: rawvideo
#dimensions 0: 176x288
#sar 0: 0/1
0,          0,          0,        1,   152064, 0xf576742c
0,          1,          1,        1,   152064, 0x2ce36ae4
0,          2,          2,        1,   152064, 0x2dc99849
0,          3,          3,        1,   152064, 0x940413b6
0,          4,          4,        1,   152064, 0x48a600d3
